sfk_cyclingleg_states
version=1
nRows=9
nColumns=49
inDegrees=yes

# SIMM Motion File Header:
name sfk_cyclingleg_states
datacolumns 49
datarows 9
otherdata 1
range 0.00000000 0.02878955
endheader
time	/jointset/bb/crank_angle/value	/jointset/bb/crank_angle/speed	/jointset/spindle/pedal_angle_r/value	/jointset/spindle/pedal_angle_r/speed	/jointset/ground_pelvis/pelvis_tilt/value	/jointset/ground_pelvis/pelvis_tilt/speed	/jointset/ground_pelvis/pelvis_list/value	/jointset/ground_pelvis/pelvis_list/speed	/jointset/ground_pelvis/pelvis_rotation/value	/jointset/ground_pelvis/pelvis_rotation/speed	/jointset/ground_pelvis/pelvis_tx/value	/jointset/ground_pelvis/pelvis_tx/speed	/jointset/ground_pelvis/pelvis_ty/value	/jointset/ground_pelvis/pelvis_ty/speed	/jointset/ground_pelvis/pelvis_tz/value	/jointset/ground_pelvis/pelvis_tz/speed	/jointset/hip_r/hip_angle_r/value	/jointset/hip_r/hip_angle_r/speed	/jointset/hip_r/hip_adduction_r/value	/jointset/hip_r/hip_adduction_r/speed	/jointset/hip_r/hip_rotation_r/value	/jointset/hip_r/hip_rotation_r/speed	/jointset/knee_r/knee_angle_r/value	/jointset/knee_r/knee_angle_r/speed	/jointset/knee_r/tib_tx_r/value	/jointset/knee_r/tib_tx_r/speed	/jointset/knee_r/tib_ty_r/value	/jointset/knee_r/tib_ty_r/speed	/jointset/tib_pat_r/pat_angle_r/value	/jointset/tib_pat_r/pat_angle_r/speed	/jointset/tib_pat_r/pat_tx_r/value	/jointset/tib_pat_r/pat_tx_r/speed	/jointset/tib_pat_r/pat_ty_r/value	/jointset/tib_pat_r/pat_ty_r/speed	/jointset/ankle_r/ankle_angle_r/value	/jointset/ankle_r/ankle_angle_r/speed	/jointset/subtalar_r/subtalar_angle_r/value	/jointset/subtalar_r/subtalar_angle_r/speed	/jointset/mtp_r/mtp_angle_r/value	/jointset/mtp_r/mtp_angle_r/speed	/forceset/bifemlh_r/activation	/forceset/bifemlh_r/fiber_length	/forceset/bifemsh_r/activation	/forceset/bifemsh_r/fiber_length	/forceset/glut_max2_r/activation	/forceset/glut_max2_r/fiber_length	/forceset/vas_int_r/activation	/forceset/vas_int_r/fiber_length
      0.00000000	    -10.13487855	   -480.13863232	      3.93720119	    611.57141349	      0.00000000	      0.00000000	     -0.00000000	      0.00000000	     -0.00000000	      0.00000000	     -0.00000000	      0.00000000	     -0.00000000	      0.00000000	     -0.00000000	     -0.00000000	     81.60187645	     31.46318966	      4.08770574	      1.42736615	     -3.71686533	     14.49945711	   -114.53781868	    142.62177431	     -0.00182076	      0.04714384	     -0.49428903	      0.04647078	     17.64997176	     -0.13967557	      0.02216583	      0.06926674	     -0.02416741	      0.01114607	     27.42240000	    -43.94091677	     -0.00000000	      0.00000000	     -0.00000000	     -0.00000000	      0.05000000	      0.13724584	      0.05000000	      0.14494627	      0.05000000	      0.15454916	      0.05000000	      0.16013391
      0.00110331	    -10.66462009	   -480.13863232	      4.61172923	    611.16354028	      0.00000000	      0.00000000	      0.00000000	      0.00000000	      0.00000000	      0.00000000	      0.00000000	      0.00000000	      0.00000000	      0.00000000	     -0.00000000	     -0.00000000	     81.63541751	     29.33679985	      4.08929168	      1.44747773	     -3.70077240	     14.67217874	   -114.37931842	    144.69370512	     -0.00176847	      0.04763149	     -0.49423736	      0.04718826	     17.64981161	     -0.15068158	      0.02224275	      0.07016372	     -0.02415503	      0.01128245	     27.37371606	    -44.30741790	      0.00000000	      0.00000000	     -0.00000000	     -0.00000000	      0.04921405	      0.13724673	      0.04921405	      0.14494869	      0.04921405	      0.15455022	      0.04921405	      0.16012198
      0.00548052	    -12.76628689	   -480.13863232	      7.28330347	    609.50004912	      0.00000000	      0.00000000	      0.00000000	      0.00000000	      0.00000000	     -0.00000000	      0.00000000	      0.00000000	      0.00000000	      0.00000000	     -0.00000000	     -0.00000000	     81.74529701	     20.85827212	      4.09579818	      1.52472556	     -3.63509328	     15.33017736	   -113.72819872	    152.77318065	     -0.00155595	      0.04943770	     -0.49402463	      0.05000373	     17.64905208	     -0.19706317	      0.02255747	      0.07360937	     -0.02410450	      0.01179972	     27.17681761	    -45.62048966	      0.00000000	      0.00000000	     -0.00000000	     -0.00000000	      0.04623022	      0.13726988	      0.04623022	      0.14500275	      0.04623022	      0.15457393	      0.04623022	      0.15992880
      0.00985773	    -14.86795368	   -480.13863232	      9.94745915	    607.77660547	      0.00000000	      0.00000000	      0.00000000	      0.00000000	     -0.00000000	     -0.00000000	      0.00000000	      0.00000000	      0.00000000	      0.00000000	     -0.00000000	     -0.00000000	     81.81794863	     12.33113380	      4.10263340	      1.59761249	     -3.56662861	     15.94503112	   -113.04221211	    160.62396034	     -0.00133598	      0.05103654	     -0.49379969	      0.05276733	     17.64808055	     -0.24747480	      0.02288689	      0.07687236	     -0.02405179	      0.01227779	     26.97466012	    -46.71100171	      0.00000000	      0.00000000	     -0.00000000	     -0.00000000	      0.04344784	      0.13732874	      0.04344784	      0.14510411	      0.04344784	      0.15462012	      0.04344784	      0.15961516
      0.01455074	    -17.12125277	   -480.13863232	     12.79533130	    605.87991485	      0.00000000	      0.00000000	      0.00000000	      0.00000000	     -0.00000000	     -0.00000000	      0.00000000	      0.00000000	      0.00000000	      0.00000000	     -0.00000000	     -0.00000000	     81.85431066	      3.16302666	      4.11030424	      1.67048382	     -3.49034303	     16.55719408	   -112.26915247	    168.78194203	     -0.00109289	      0.05251829	     -0.49354521	      0.05566931	     17.64678456	     -0.30545867	      0.02325546	      0.08016562	     -0.02399305	      0.01274498	     26.75317181	    -47.63844781	      0.00000000	      0.00000000	     -0.00000000	     -0.00000000	      0.04067035	      0.13743159	      0.04067035	      0.14523468	      0.04067035	      0.15467802	      0.04067035	      0.15931804
      0.01756444	    -18.56824499	   -480.13863232	     14.61940907	    604.64326473	      0.00000000	      0.00000000	      0.00000000	      0.00000000	     -0.00000000	     -0.00000000	      0.00000000	     -0.00000000	      0.00000000	      0.00000000	     -0.00000000	     -0.00000000	     81.85496936	     -2.72511317	      4.11540507	      1.71420792	     -3.43988527	     16.92521053	   -111.75278860	    173.87731616	     -0.00093335	      0.05334260	     -0.49337468	      0.05749794	     17.64580544	     -0.34453857	      0.02350010	      0.08216793	     -0.02395423	      0.01301942	     26.60887528	    -48.10555365	      0.00000000	      0.00000000	     -0.00000000	      0.00000000	      0.03899087	      0.13751399	      0.03899087	      0.14532636	      0.03899087	      0.15471344	      0.03899087	      0.15906806
      0.02150259	    -20.45910186	   -480.13863232	     16.99737857	    603.01366346	      0.00000000	      0.00000000	      0.00000000	      0.00000000	     -0.00000000	     -0.00000000	      0.00000000	     -0.00000000	      0.00000000	      0.00000000	     -0.00000000	     -0.00000000	     81.82910643	    -10.40572492	      4.12226231	      1.76752648	     -3.37233045	     17.37733891	   -111.05519561	    180.36502324	     -0.00072140	      0.05427003	     -0.49314361	      0.05984452	     17.64434511	     -0.39740021	      0.02382862	      0.08465174	     -0.02390230	      0.01334702	     26.41846191	    -48.56911536	      0.00000000	      0.00000000	     -0.00000000	     -0.00000000	      0.03691056	      0.13763101	      0.03691056	      0.14545390	      0.03691056	      0.15475372	      0.03691056	      0.15877998
      0.02462419	    -21.95790453	   -480.13863232	     18.87772425	    601.71636807	      0.00000000	      0.00000000	      0.00000000	      0.00000000	     -0.00000000	     -0.00000000	      0.00000000	     -0.00000000	      0.00000000	      0.00000000	     -0.00000000	     -0.00000000	     81.78714793	    -16.47312439	      4.12784156	      1.80659499	     -3.31755598	     17.71319657	   -110.48432474	    185.36939697	     -0.00055100	      0.05488521	     -0.49295394	      0.06166872	     17.64303761	     -0.44045950	      0.02409581	      0.08651401	     -0.02386026	      0.01358117	     26.26642785	    -48.82195289	      0.00000000	      0.00000000	     -0.00000000	     -0.00000000	      0.03534826	      0.13772486	      0.03534826	      0.14556202	      0.03534826	      0.15477946	      0.03534826	      0.15851026
      0.02878955	    -23.95785374	   -480.13863232	     21.38048149	    599.98519411	      0.00000000	      0.00000000	      0.00000000	      0.00000000	     -0.00000000	     -0.00000000	     -0.00000000	     -0.00000000	      0.00000000	      0.00000000	     -0.00000000	     -0.00000000	     81.70173917	    -24.52665007	      4.13546758	      1.85416486	     -3.24289150	     18.13140970	   -109.69860934	    191.85608339	     -0.00032095	      0.05554228	     -0.49269209	      0.06405168	     17.64108128	     -0.49904497	      0.02446110	      0.08885312	     -0.02380310	      0.01385765	     26.06262152	    -49.00743226	      0.00000000	      0.00000000	     -0.00000000	      0.00000000	      0.03337531	      0.13784490	      0.03337531	      0.14571552	      0.03337531	      0.15480438	      0.03337531	      0.15819227
